# xmcd
#
# Track frame offsets:
#	150
#	33158
#	53030
#	68243
#	85283
#	100363
#	119885
#	133865
#	165865
#	184965
#	204715
#	223540
#	241620
#
# Disc length: 3662 seconds
#
# Revision: 1
# Processed by: cddbd v1.5.1PL0 Copyright (c) Steve Scherf et al.
# Submitted via: CDex 1.50Beta5
#
DISCID=b90e4c0d
DTITLE=おニャン子クラブ - アイドル・ファイル保存盤(女性編)
DYEAR=1990
DGENRE=Pop
TTITLE0=おニャン子クラブ/会員番号の唄
TTITLE1=手塚さとみ/ボビーに片想い
TTITLE2=シュガー/ウエディング・ベル
TTITLE3=坂口良子/まるで少年のように
TTITLE4=わらべ/めだかの兄妹
TTITLE5=松尾久美子/メモワール
TTITLE6=ソフトクリーム/スキよ ダイスキ君
TTITLE7=ユミ/もしもタヌキが世界にいたら
TTITLE8=おかわりシスターズ/恋をアンコール
TTITLE9=麻生祐未/ドキュメント
TTITLE10=伊藤かずえ/星屑のイノセンス
TTITLE11=吉沢秋絵withおニャン子クラブ/なぜ?の嵐
TTITLE12=おニャン子クラブ/新・会員番号の唄
EXTD=
EXTT0=
EXTT1=
EXTT2=
EXTT3=
EXTT4=
EXTT5=
EXTT6=
EXTT7=
EXTT8=
EXTT9=
EXTT10=
EXTT11=
EXTT12=
PLAYORDER=
